<svg class="icon" viewBox="0 0 1024 1024" version="1.1" xmlns="http://www.w3.org/2000/svg"><path d="M560.936 680.136l147.664-255.76 47.112 27.2-147.664 255.76a25.032 25.032 0 0 1-34.192 9.16l-3.72-2.152a25.032 25.032 0 0 1-9.2-34.208z" fill="#0E3D36"></path><path d="M313.6 406.744h421.68v54.4H313.6a25.032 25.032 0 0 1-25.032-25.032v-4.296a25.032 25.032 0 0 1 25.032-25.072z" fill="#0E3D36"></path><path d="M545.6 172.888h162.304v54.4H545.6a25.032 25.032 0 0 1-25.032-25.032v-4.296a25.032 25.032 0 0 1 25.032-25.072z" fill="#C2DDB1"></path><path d="M728.168 192.24v118.872h-54.4V192.24a25.032 25.032 0 0 1 25.032-25.032h4.296a25.032 25.032 0 0 1 25.072 25.032z" fill="#0E3D36"></path><path d="M155.272 655.008l203.888-353.152 47.12 27.2-203.896 353.152a25.032 25.032 0 0 1-34.192 9.16l-3.752-2.16a25.032 25.032 0 0 1-9.168-34.2z" fill="#093029"></path><path d="M611.768 712.848h-407.6c-22.552 0-40.8-12.168-40.8-27.2 0-15.008 18.28-27.2 40.8-27.2h407.6zM716.488 297.144l180.752 482.176-50.944 19.088L665.552 316.24a25.032 25.032 0 0 1 14.656-32.224l4.024-1.512a25.032 25.032 0 0 1 32.224 14.656z" fill="#0E3D36"></path><path d="M230.28 239.16h141.04A82.48 82.48 0 0 1 453.792 321.6v9.128a24 24 0 0 1-24 24H230.28a40 40 0 0 1-40-40v-35.568a40 40 0 0 1 40-40z" fill="#75B23F"></path><path d="M581.8 736.088a50.4 50.4 0 1 1 50.4-50.4 50.48 50.48 0 0 1-50.4 50.4z" fill="#C2DDB1"></path><path d="M661.344 245.576m16 0l47.32 0q16 0 16 16l0 59.656q0 16-16 16l-47.32 0q-16 0-16-16l0-59.656q0-16 16-16Z" fill="#80BC50"></path><path d="M838.44 686.192m-130.6 0a130.6 130.6 0 1 0 261.2 0 130.6 130.6 0 1 0-261.2 0Z" fill="#184D47"></path><path d="M511.912 658.488H204.168c-22.544 0-40.8 12.168-40.8 27.2s18.288 27.2 40.8 27.2h307.744z" fill="#093029"></path><path d="M838.448 732.632a46.44 46.44 0 1 1 46.4-46.4 46.488 46.488 0 0 1-46.4 46.4z" fill="#D6EFC7"></path><path d="M185.56 686.192m-130.6 0a130.6 130.6 0 1 0 261.2 0 130.6 130.6 0 1 0-261.2 0Z" fill="#0E3D36"></path><path d="M185.6 732.632a46.44 46.44 0 1 1 46.4-46.4 46.488 46.488 0 0 1-46.4 46.4z" fill="#C2DDB1"></path><path d="M511.912 406.744H313.6a25.032 25.032 0 0 0-25.04 25.032v4.296a25.032 25.032 0 0 0 25.04 25.032h198.32z" fill="#093029"></path></svg>